<?xml version="1.0" encoding="UTF-8"?>
<!DOCTYPE svg PUBLIC "-//W3C//DTD SVG 1.1//EN" "http://www.w3.org/Graphics/SVG/1.1/DTD/svg11.dtd">
<svg xmlns="http://www.w3.org/2000/svg" version="1.1" width="512px" height="512px" style="shape-rendering:geometricPrecision; text-rendering:geometricPrecision; image-rendering:optimizeQuality; fill-rule:evenodd; clip-rule:evenodd" xmlns:xlink="http://www.w3.org/1999/xlink">
<g><path style="opacity:0.987" fill="#f1c513" d="M 69.5,95.5 C 193.5,95.3333 317.5,95.5 441.5,96C 447.132,96.9251 452.132,99.0918 456.5,102.5C 393.376,145.235 330.043,187.735 266.5,230C 259.167,234.667 251.833,234.667 244.5,230C 181.672,187.752 118.672,145.752 55.5,104C 54.2888,103.107 54.2888,102.274 55.5,101.5C 60.0345,98.8916 64.7011,96.8916 69.5,95.5 Z"/></g>
<g><path style="opacity:0.996" fill="#f1c513" d="M 33.5,127.5 C 98.1765,169.318 162.51,211.818 226.5,255C 245.833,267.667 265.167,267.667 284.5,255C 348.49,211.818 412.824,169.318 477.5,127.5C 477.838,129.854 478.338,132.187 479,134.5C 479.667,215.5 479.667,296.5 479,377.5C 473.833,397.333 461.333,409.833 441.5,415C 317.5,415.667 193.5,415.667 69.5,415C 49.6667,409.833 37.1667,397.333 32,377.5C 31.3333,296.5 31.3333,215.5 32,134.5C 32.662,132.187 33.162,129.854 33.5,127.5 Z"/></g>
</svg>
