<?xml version="1.0" encoding="UTF-8"?>
<svg version="1.1" xmlns="http://www.w3.org/2000/svg" width="512" height="512">
<path d="M0 0 C5.79441933 5.61521049 8.21076139 12.02568964 8.41040897 20.08259392 C8.41829441 32.64634714 6.11968658 44.32466491 3.41015625 56.5546875 C2.91712185 58.84902353 2.42584931 61.14373876 1.93618774 63.438797 C0.61093635 69.62741898 -0.73784337 75.81069633 -2.09079361 81.99331284 C-3.382493 87.9150503 -4.65562411 93.8407464 -5.92854869 99.76654279 C-8.28659632 110.74262003 -10.65653269 121.71607745 -13.03605092 132.68751872 C-16.46976477 148.52062816 -19.86607776 164.36152877 -23.2421875 180.20703125 C-23.49329914 181.38539677 -23.74441078 182.56376228 -24.00313187 183.77783585 C-25.01554239 188.52874762 -26.02793374 193.27966347 -27.04008675 198.03063011 C-28.80927896 206.33295614 -30.58396387 214.63409474 -32.36181641 222.93457031 C-32.61622183 224.12242945 -32.87062725 225.31028858 -33.13274193 226.53414345 C-33.65071507 228.95260389 -34.16868929 231.3710641 -34.68666458 233.78952408 C-39.21026303 254.91208706 -43.70961129 276.03962461 -48.18910867 297.17157394 C-49.32338203 302.52177018 -50.45916577 307.87164408 -51.59599304 313.22129822 C-51.83505785 314.34628531 -51.83505785 314.34628531 -52.07895225 315.49399942 C-52.87886788 319.25792228 -53.67899275 323.02180059 -54.47926617 326.78564739 C-56.19761345 334.86880401 -57.91102414 342.95297699 -59.61818922 351.03850275 C-60.78253824 356.55105046 -61.95268127 362.06234856 -63.12724364 367.57272905 C-63.80638336 370.75983763 -64.48200672 373.94762144 -65.15234375 377.13659477 C-65.88499247 380.62017675 -66.62748254 384.10152523 -67.37231445 387.58251953 C-67.5805399 388.58439647 -67.78876535 389.5862734 -68.00330067 390.61851025 C-70.22259555 400.88621946 -73.09668034 413.59414664 -81.80078125 420.41015625 C-88.22033719 424.24539417 -94.31607848 424.85483334 -101.58984375 423.52734375 C-111.80977098 420.73754194 -119.66093939 414.24454113 -128 408 C-129.55862744 406.8511418 -131.11853681 405.70402083 -132.6796875 404.55859375 C-135.87345343 402.21367036 -139.06163296 399.86144857 -142.24609375 397.50390625 C-146.80592818 394.13448342 -151.39792505 390.81139661 -156 387.5 C-166.19371061 380.16017162 -176.29401964 372.69545144 -186.39550781 365.22949219 C-188.78393755 363.46472424 -191.17298537 361.70079869 -193.5625 359.9375 C-194.34149658 359.36257813 -195.12049316 358.78765625 -195.9230957 358.1953125 C-201.46371433 354.11353767 -207.0377186 350.08008509 -212.625 346.0625 C-218.51345903 341.82813097 -224.34606923 337.54628936 -230 333 C-233.65290837 335.02926007 -236.44667862 337.21820791 -239.36328125 340.203125 C-240.16830078 341.01910156 -240.97332031 341.83507812 -241.80273438 342.67578125 C-242.63095703 343.52527344 -243.45917969 344.37476563 -244.3125 345.25 C-249.4344209 350.48106996 -254.56214581 355.58104089 -260.12182617 360.34667969 C-263.23026622 363.0829797 -266.10440046 366.04212069 -269 369 C-273.24946717 373.29906965 -277.51726791 377.46830324 -282.15234375 381.35546875 C-284.36565298 383.32545434 -286.34464145 385.46752335 -288.375 387.625 C-292.99479427 392.26860764 -298.39926272 396.84389549 -305.23730469 397.07591248 C-306.04071289 397.06689407 -306.84412109 397.05787567 -307.671875 397.04858398 C-308.88762207 397.03806252 -308.88762207 397.03806252 -310.12792969 397.02732849 C-310.74571289 397.01831009 -311.36349609 397.00929169 -312 397 C-311.1047254 376.42911538 -310.01428657 355.87494893 -308.69793034 335.32657909 C-308.3362924 329.66570865 -307.99308614 324.00491828 -307.69018555 318.34057617 C-307.39301577 312.7943138 -307.05002808 307.25261515 -306.67510796 301.71108437 C-306.54134234 299.61781996 -306.42370421 297.52345554 -306.32310677 295.42833519 C-305.42657842 277.13139976 -305.42657842 277.13139976 -299.15795898 271.43481445 C-297.46125207 270.25662554 -295.74168491 269.11062016 -294 268 C-292.30975557 266.52661901 -290.64004259 265.02906444 -289 263.5 C-279 254.5 -279 254.5 -276.5078125 252.2578125 C-274.81407106 250.73291756 -273.12138831 249.20684598 -271.4296875 247.6796875 C-267.68435744 244.30087292 -263.93481793 240.93104035 -260.125 237.625 C-256.15747276 234.17148439 -252.2915236 230.6099606 -248.42236328 227.04736328 C-245.0355544 223.93414956 -241.60102456 220.88755462 -238.125 217.875 C-235.38176506 215.45449858 -232.69118757 212.97795822 -230 210.5 C-226.04140277 206.8558306 -222.04823168 203.26086221 -217.984375 199.734375 C-213.94625309 196.20499286 -209.98085319 192.59365774 -206 189 C-204.33359149 187.49971321 -202.66692647 185.99971128 -201 184.5 C-200.175 183.7575 -199.35 183.015 -198.5 182.25 C-191 175.5 -191 175.5 -188.5078125 173.2578125 C-186.81407106 171.73291756 -185.12138831 170.20684598 -183.4296875 168.6796875 C-179.68435744 165.30087292 -175.93481793 161.93104035 -172.125 158.625 C-168.15747276 155.17148439 -164.2915236 151.6099606 -160.42236328 148.04736328 C-157.0355544 144.93414956 -153.60102456 141.88755462 -150.125 138.875 C-147.38176506 136.45449858 -144.69118757 133.97795822 -142 131.5 C-138.04140277 127.8558306 -134.04823168 124.26086221 -129.984375 120.734375 C-125.94625309 117.20499286 -121.98085319 113.59365774 -118 110 C-116.33359149 108.49971321 -114.66692647 106.99971128 -113 105.5 C-112.175 104.7575 -111.35 104.015 -110.5 103.25 C-108 101 -105.5 98.75 -103 96.5 C-102.18144531 95.76265625 -101.36289062 95.0253125 -100.51953125 94.265625 C-98.79032753 92.71068212 -97.05840942 91.15875411 -95.32421875 89.609375 C-92.87340958 87.41635464 -90.43268327 85.21309593 -88 83 C-87.42636719 82.48179687 -86.85273438 81.96359375 -86.26171875 81.4296875 C-84.74095062 80.039294 -84.74095062 80.039294 -83 78 C-83 77.01 -83 76.02 -83 75 C-89.13139247 73.0637708 -93.4672606 75.41588285 -99 78 C-102.07334105 79.69749251 -105.00464083 81.57177359 -107.9375 83.5 C-109.60924872 84.57701895 -111.28112729 85.65383638 -112.953125 86.73046875 C-114.21479492 87.549104 -114.21479492 87.549104 -115.50195312 88.38427734 C-119.37775662 90.89112523 -123.28237694 93.351675 -127.1875 95.8125 C-127.96125977 96.30129639 -128.73501953 96.79009277 -129.53222656 97.29370117 C-138.97337997 103.25527399 -148.44758279 109.16403772 -157.91943359 115.07666016 C-162.94746487 118.21589223 -167.97365341 121.35807151 -173 124.5 C-174.99999085 125.75001464 -176.99999086 127.00001462 -179 128.25 C-179.99 128.86875 -180.98 129.4875 -182 130.125 C-262.99999999 180.75 -262.99999999 180.75 -266.0012207 182.62573242 C-267.99718828 183.87323247 -269.99311939 185.12079088 -271.98901367 186.3684082 C-277.05040916 189.53214182 -282.11247394 192.69479561 -287.17578125 195.85546875 C-296.29664348 201.5502203 -305.41349687 207.25054543 -314.5 213 C-319.58491567 216.21702076 -324.67462146 219.4261383 -329.7734375 222.62109375 C-330.77173584 223.24830322 -331.77003418 223.8755127 -332.79858398 224.52172852 C-334.84895936 225.7985554 -336.90846668 227.06083374 -338.97680664 228.30834961 C-344.79567332 231.84171039 -350.06784645 235.49585331 -355.10961914 240.08251953 C-365.50521659 247.36114297 -365.50521659 247.36114297 -372.34596252 246.65423584 C-376.20744275 245.64959668 -379.94668697 244.41449039 -383.703125 243.08203125 C-385.14062408 242.6048058 -386.57948738 242.13167312 -388.01957703 241.662323 C-391.09135399 240.6569735 -394.15597488 239.63289395 -397.21725464 238.59603882 C-404.48235936 236.15116184 -411.81805318 233.93263309 -419.1454792 231.68338966 C-423.32908682 230.39547612 -427.50722207 229.09008712 -431.68554688 227.78515625 C-433.36644598 227.26055027 -435.04735421 226.73597353 -436.72827148 226.21142578 C-437.56398682 225.95059204 -438.39970215 225.6897583 -439.26074219 225.42102051 C-442.70863034 224.34545226 -446.15710127 223.271759 -449.60556507 222.1980381 C-452.98012746 221.1470679 -456.3543315 220.09495101 -459.72842979 219.04249191 C-461.31211494 218.54864056 -462.89590366 218.0551212 -464.4798069 217.56196976 C-469.32372881 216.05337441 -474.16399524 214.5337847 -479 213 C-480.74052139 212.44974152 -480.74052139 212.44974152 -482.51620483 211.8883667 C-483.56877472 211.54799377 -484.6213446 211.20762085 -485.70581055 210.85693359 C-486.60293259 210.56821381 -487.50005463 210.27949402 -488.42436218 209.98202515 C-494.39071163 207.70720795 -500.65641167 204.63514419 -504 199 C-504.95342489 194.25671117 -504.78359368 189.48513057 -502.1875 185.3125 C-494.98939981 177.07556544 -484.2150319 173.14323351 -474.25 169.375 C-472.84289181 168.83258296 -471.4361692 168.28916488 -470.02978516 167.74487305 C-465.95914008 166.17382667 -461.88219469 164.61970534 -457.80407715 163.06817627 C-453.73203827 161.51698667 -449.66317072 159.95754427 -445.59399414 158.39886475 C-435.0641299 154.36588436 -424.52962532 150.34517771 -413.9921875 146.33203125 C-401.4888633 141.57010433 -388.99293394 136.78910777 -376.5 132 C-364.22833783 127.2966079 -351.95461264 122.59871089 -339.67578125 117.9140625 C-338.54280609 117.48180359 -337.40983093 117.04954468 -336.24252319 116.60418701 C-333.93007643 115.72195829 -331.61762728 114.83973584 -329.30517578 113.95751953 C-310.1928176 106.6658062 -291.0896512 99.35096088 -272 92 C-254.07320195 85.09682561 -236.13547993 78.22291748 -218.1875 71.375 C-217.035914 70.93560089 -215.884328 70.49620178 -214.69784546 70.04348755 C-212.387549 69.1619791 -210.07725136 68.28047375 -207.76695251 67.39897156 C-206.63471756 66.96695938 -205.5024826 66.5349472 -204.3359375 66.08984375 C-203.21075211 65.66053055 -202.08556671 65.23121735 -200.92628479 64.78889465 C-189.71896752 60.51220525 -178.51478741 56.22734591 -167.3125 51.9375 C-166.36391113 51.57427643 -165.41532227 51.21105286 -164.43798828 50.83682251 C-153.37930549 46.60167468 -142.32424377 42.3572214 -131.2734375 38.1015625 C-130.19905426 37.68784897 -129.12467102 37.27413544 -128.01773071 36.84788513 C-126.93857391 36.43232864 -125.85941711 36.01677216 -124.74755859 35.58862305 C-123.66448425 35.17156097 -122.58140991 34.7544989 -121.46551514 34.32479858 C-119.28942452 33.48682927 -117.11335822 32.64879677 -114.93731689 31.81069946 C-96.13146446 24.56930853 -77.3002363 17.39594485 -58.4519043 10.26586914 C-48.89994403 6.64871681 -39.37022534 2.99728402 -29.91088867 -0.85644531 C-19.68589341 -4.87337711 -9.72571894 -5.91138774 0 0 Z " fill="#f1c513" transform="translate(504,46)"/>
</svg>
