<?xml version="1.0" standalone="no"?>
<!DOCTYPE svg PUBLIC "-//W3C//DTD SVG 20010904//EN"
 "http://www.w3.org/TR/2001/REC-SVG-20010904/DTD/svg10.dtd">
<svg version="1.0" xmlns="http://www.w3.org/2000/svg"
 width="512.000000pt" height="512.000000pt" viewBox="0 0 512.000000 512.000000"
 preserveAspectRatio="xMidYMid meet">

<g transform="translate(0.000000,512.000000) scale(0.100000,-0.100000)"
fill="#000000" stroke="none">
<path d="M1030 4305 c-373 -85 -630 -403 -630 -780 0 -248 108 -471 303 -627
l49 -38 -352 0 -351 0 -24 -25 c-33 -32 -33 -78 0 -110 l24 -25 421 0 420 0 0
-80 0 -80 -165 0 c-207 0 -235 -10 -235 -89 0 -17 10 -37 26 -52 25 -23 31
-24 200 -27 l174 -3 0 -80 0 -79 -420 0 -421 0 -24 -25 c-33 -32 -33 -78 0
-110 l24 -25 421 0 420 0 0 -179 0 -178 -54 -36 c-66 -44 -117 -105 -152 -182
-22 -48 -28 -78 -32 -160 -4 -91 -2 -102 18 -127 l21 -28 381 -2 381 -3 12
-42 c27 -90 126 -208 211 -251 141 -72 312 -68 446 11 82 48 171 166 202 270
5 16 51 17 785 17 l779 0 16 -46 c35 -102 124 -207 217 -254 182 -93 406 -52
541 99 35 39 81 123 102 183 5 16 22 18 160 18 l155 0 20 26 c21 26 21 36 21
503 l0 476 -142 220 c-207 320 -300 406 -494 455 -70 18 -111 20 -451 20
l-373 0 0 204 c0 112 -5 228 -10 257 -25 132 -116 251 -237 311 l-68 33 -684
5 -684 5 -17 63 c-41 149 -142 304 -263 402 -72 59 -215 133 -302 156 -85 22
-283 27 -365 9z m351 -175 c200 -67 351 -217 415 -413 39 -117 39 -267 0 -384
-101 -309 -417 -494 -731 -428 -214 45 -398 208 -472 420 -24 70 -27 95 -27
200 0 105 3 130 27 198 74 211 255 374 467 422 88 20 237 13 321 -15z m1963
-644 c52 -26 104 -79 127 -130 18 -39 19 -82 19 -838 l0 -798 -1215 0 -1215 0
0 165 0 165 95 0 c88 0 98 2 120 25 33 32 33 78 0 110 -22 23 -32 25 -120 25
l-95 0 0 80 0 80 283 0 c249 0 286 2 316 18 43 21 58 60 39 99 -24 50 -40 53
-350 53 l-288 0 0 80 0 80 539 0 c529 0 539 0 565 21 35 27 36 86 3 117 -22
21 -32 22 -275 24 l-252 3 56 44 c154 120 267 330 290 539 l7 62 656 -2 c626
-3 658 -4 695 -22z m1078 -797 c156 -33 224 -95 402 -367 l136 -209 0 -396 0
-397 -94 0 -94 0 -6 33 c-17 93 -103 217 -191 276 -174 118 -413 95 -562 -54
-54 -54 -108 -149 -121 -213 l-8 -37 -112 -3 -112 -3 0 691 0 690 355 0 c222
0 374 -4 407 -11z m-2872 -1134 c0 -3 -13 -24 -30 -46 -31 -44 -70 -137 -70
-169 0 -19 -9 -20 -320 -20 -176 0 -320 4 -320 8 0 5 7 31 15 58 19 66 67 121
129 150 50 23 58 24 324 24 149 0 272 -2 272 -5z m1940 -115 l0 -120 -579 0
-579 0 -7 38 c-9 53 -41 121 -76 165 l-30 37 636 0 635 0 0 -120z m-1471 69
c99 -49 153 -137 154 -249 1 -87 -30 -156 -95 -215 -108 -97 -264 -99 -372 -4
-69 61 -100 127 -100 214 1 118 53 203 156 254 87 44 170 44 257 0z m2426 7
c62 -28 126 -97 150 -159 22 -57 17 -175 -9 -224 -27 -54 -76 -103 -130 -131
-42 -22 -64 -27 -126 -27 -89 0 -145 23 -204 81 -59 59 -81 115 -80 204 0 64
4 83 29 129 33 60 93 114 151 135 63 23 160 20 219 -8z"/>
<path d="M1165 3935 c-25 -24 -25 -26 -25 -202 l0 -178 -90 -124 c-98 -134
-110 -171 -70 -211 26 -26 80 -30 107 -8 13 10 180 238 200 272 9 15 12 83 13
224 0 202 0 203 -25 227 -15 16 -36 25 -55 25 -19 0 -40 -9 -55 -25z"/>
<path d="M4094 2597 l-29 -25 -3 -299 c-2 -164 0 -308 3 -321 3 -12 14 -31 25
-42 19 -19 35 -20 333 -20 292 0 314 1 344 20 45 27 66 73 60 129 -3 35 -31
92 -113 236 -123 214 -163 262 -262 308 -62 29 -76 32 -198 35 -128 4 -131 4
-160 -21z m312 -172 c22 -13 45 -30 51 -37 12 -14 193 -328 193 -334 0 -2 -94
-4 -210 -4 l-210 0 0 206 0 207 68 -7 c42 -5 82 -16 108 -31z"/>
<path d="M1833 1375 c-64 -28 -93 -123 -57 -185 51 -85 187 -82 229 6 33 70 5
152 -60 180 -43 17 -71 17 -112 -1z"/>
<path d="M4263 1370 c-43 -26 -64 -61 -65 -107 -1 -80 54 -136 134 -136 45 0
82 23 108 66 25 40 25 82 2 126 -35 65 -118 89 -179 51z"/>
</g>
</svg>
